<?xml version="1.0" encoding="utf-8"?>
<!-- Generator: Adobe Illustrator 16.0.0, SVG Export Plug-In . SVG Version: 6.00 Build 0)  -->
<!DOCTYPE svg PUBLIC "-//W3C//DTD SVG 1.1//EN" "http://www.w3.org/Graphics/SVG/1.1/DTD/svg11.dtd">
<svg version="1.1" xmlns="http://www.w3.org/2000/svg" xmlns:xlink="http://www.w3.org/1999/xlink" x="0px" y="0px" width="320px"
	 height="489.037px" viewBox="0 0 320 489.037" enable-background="new 0 0 320 489.037" xml:space="preserve">
<g id="Ref">
</g>
<g id="Wireframes">
</g>
<g id="FrameDrawings">
</g>
<g id="Color_Palette">
</g>
<g id="RankIcons">
</g>
<g id="E2-BG">
	<g>
		<g>
			<path fill="#F4921E" d="M123.429,291.01c-1.003-1.003-1.003-2.631,0-3.634c1.004-1.003,2.631-1.003,3.635,0l0.332,0.361
				c0.738,0.812,1.492,1.604,2.254,2.375c5.876,5.942,12.31,10.68,17.128,13.86V270.07V160.671l-15.436-6.147l-17.276,4.319
				c4.426,3.814,5.83,7.614,8.362,13.721c3.226,7.779,2.753,15.912,2.766,17.418v80.089v7.194c0,1.419-1.149,2.569-2.568,2.569
				s-2.569-1.15-2.569-2.569v-7.194v-80.337c0.007-0.069,0.17-27.554-20.555-32.547l32.203-8.051l20.213,8.051V270.07v42.995
				c0,0-13.771-7.131-25.688-19.104c-0.976-0.979-1.939-1.991-2.882-3.036L123.429,291.01z"/>
		</g>
	</g>
</g>
<g id="E1-ProgressBars">
</g>
<g id="Text">
</g>
<g id="Ext_BG">
</g>
<g id="iCONS">
</g>
<g id="Layer_11">
</g>
</svg>
