<?xml version="1.0" encoding="utf-8"?>
<!-- Generator: Adobe Illustrator 16.0.0, SVG Export Plug-In . SVG Version: 6.00 Build 0)  -->
<!DOCTYPE svg PUBLIC "-//W3C//DTD SVG 1.1//EN" "http://www.w3.org/Graphics/SVG/1.1/DTD/svg11.dtd">
<svg version="1.1" xmlns="http://www.w3.org/2000/svg" xmlns:xlink="http://www.w3.org/1999/xlink" x="0px" y="0px" width="320px"
	 height="489.037px" viewBox="0 0 320 489.037" enable-background="new 0 0 320 489.037" xml:space="preserve">
<g id="Ref">
</g>
<g id="Wireframes">
</g>
<g id="FrameDrawings">
</g>
<g id="Color_Palette">
</g>
<g id="RankIcons">
</g>
<g id="E2-BG">
	<g>
		<path fill="#F4921E" d="M196.528,291.01c1.004-1.003,1.005-2.631,0.001-3.634c-1.003-1.003-2.631-1.003-3.635,0l-0.331,0.361
			c-0.739,0.812-1.492,1.604-2.254,2.375c-5.876,5.942-12.311,10.68-17.129,13.86V270.07V160.671l15.436-6.147l17.277,4.319
			c-4.426,3.814-5.831,7.614-8.362,13.721c-3.227,7.779-2.754,15.912-2.767,17.418v80.089v7.194c0,1.419,1.149,2.569,2.569,2.569
			c1.418,0,2.569-1.15,2.569-2.569v-7.194v-80.337c-0.009-0.069-0.171-27.554,20.555-32.547l-32.204-8.051l-20.212,8.051V270.07
			v42.995c0,0,13.771-7.131,25.688-19.104c0.977-0.979,1.939-1.991,2.882-3.036L196.528,291.01z"/>
	</g>
</g>
<g id="E1-ProgressBars">
</g>
<g id="Text">
</g>
<g id="Ext_BG">
</g>
<g id="iCONS">
</g>
<g id="Layer_11">
</g>
</svg>
