<?xml version="1.0" encoding="utf-8"?>
<!-- Generator: Adobe Illustrator 16.0.0, SVG Export Plug-In . SVG Version: 6.00 Build 0)  -->
<!DOCTYPE svg PUBLIC "-//W3C//DTD SVG 1.1//EN" "http://www.w3.org/Graphics/SVG/1.1/DTD/svg11.dtd">
<svg version="1.1" xmlns="http://www.w3.org/2000/svg" xmlns:xlink="http://www.w3.org/1999/xlink" x="0px" y="0px" width="1500px"
	 height="1500px" viewBox="0 0 1500 1500" enable-background="new 0 0 1500 1500" xml:space="preserve">
<g id="Layer_2">
</g>
<g id="Cuts">
	<g>
		<path fill="#D1FFFF" d="M778.077,246L364.539,491.539l416.769,241.23l416.77-241.23L778.077,246z M540.077,522.769
			c-33.902,0-61.385-14.946-61.385-33.384c0-18.438,27.482-33.385,61.385-33.385c33.902,0,61.384,14.946,61.384,33.385
			C601.461,507.823,573.979,522.769,540.077,522.769z M773.188,522.769c-33.902,0-61.384-14.946-61.384-33.384
			c0-18.438,27.482-33.385,61.384-33.385c33.902,0,61.385,14.946,61.385,33.385C834.573,507.823,807.091,522.769,773.188,522.769z
			 M1006.301,522.769c-33.902,0-61.385-14.946-61.385-33.384c0-18.438,27.482-33.385,61.385-33.385
			c33.901,0,61.385,14.946,61.385,33.385C1067.686,507.823,1040.202,522.769,1006.301,522.769z"/>
		<path fill="#D1FFFF" d="M343,523.846v495.384L752.23,1254V760.77L343,523.846z M404.966,651.218
			c18.037-10.391,43.972,0.822,57.925,25.044c13.953,24.223,10.642,52.282-7.396,62.674c-18.037,10.391-43.972-0.823-57.925-25.045
			C383.617,689.669,386.928,661.609,404.966,651.218z M462.664,1002.481c-18.038,10.391-43.972-0.822-57.926-25.045
			c-13.953-24.222-10.642-52.282,7.396-62.674c18.038-10.391,43.972,0.822,57.926,25.045
			C484.013,964.03,480.702,992.09,462.664,1002.481z M555.698,937.068c-19.801,6.425-42.847-9.924-51.473-36.513
			c-8.628-26.59,0.43-53.353,20.231-59.777c19.801-6.425,42.847,9.924,51.474,36.512
			C584.557,903.88,575.499,930.644,555.698,937.068z M687.652,1130.587c-17.261,11.636-43.921,2.28-59.547-20.898
			c-15.626-23.18-14.301-51.402,2.96-63.04c17.261-11.636,43.921-2.278,59.547,20.9
			C706.239,1090.727,704.914,1118.951,687.652,1130.587z M687.652,864.027c-17.261,11.636-43.921,2.279-59.547-20.899
			s-14.301-51.402,2.96-63.039c17.261-11.636,43.921-2.279,59.547,20.899S704.914,852.391,687.652,864.027z"/>
		<path fill="#D1FFFF" d="M799.615,765.077V1254L1211,1019.23V523.846L799.615,765.077z M1044.209,1034.754
			c-14.34,25.109-41.231,36.748-60.065,25.993c-18.833-10.755-22.476-39.83-8.135-64.94c14.341-25.111,41.233-36.748,60.064-25.992
			C1054.907,980.568,1058.55,1009.644,1044.209,1034.754z M1068.846,838.308c-38.769,38.77-51.691,60.308-43.076,79.692
			l-39.545,23.692c-5.082-17.23,0-68.923,23.885-87.209c22.188-16.987,75.968-126.022,22.121-104.483
			c-53.846,21.539-73.6,104.483-73.6,104.483l-42.708,11.824c0,0,40.923-163.692,139.506-174.461
			C1116.248,685.203,1107.615,799.539,1068.846,838.308z"/>
	</g>
</g>
</svg>
