<?xml version="1.0" encoding="utf-8"?>
<!-- Generator: Adobe Illustrator 16.0.0, SVG Export Plug-In . SVG Version: 6.00 Build 0)  -->
<!DOCTYPE svg PUBLIC "-//W3C//DTD SVG 1.1//EN" "http://www.w3.org/Graphics/SVG/1.1/DTD/svg11.dtd">
<svg version="1.1" xmlns="http://www.w3.org/2000/svg" xmlns:xlink="http://www.w3.org/1999/xlink" x="0px" y="0px" width="1500px"
	 height="1500px" viewBox="0 0 1500 1500" enable-background="new 0 0 1500 1500" xml:space="preserve">
<g id="Layer_1">
</g>
<g id="Layer_2">
	<g>
		<g>
			<polygon fill="#D1FFFF" points="653.565,450.791 750.501,266.3 841.074,450.791 766.375,450.791 748.844,423.351 
				732.837,450.791 			"/>
			<path fill="#D1FFFF" d="M417.273,490.427h257.634c0,0-45.734,28.965-71.649,59.454c0,0-18.484,21.533-4.574,35.062
				c0,0,6.098,4.383,13.911-2.858c7.813-7.241,17.341-22.104,42.113-25.344c0,0-15.625,13.911-23.248,32.395
				c0,0,14.102-12.958,24.963,2.096c0,0-17.873,9.77-12.005,30.108c4.383,15.191,22.486,14.482,27.44,13.911
				c0,0,22.676-1.334,27.44-20.771c4.764-19.437-10.29-22.295-16.769-16.388c-6.479,5.907-9.909,11.624-12.196,18.865
				c0,0-17.538-44.889,15.626-52.785c12.005-2.858,12.142-4.043,18.103-9.528c0,0,12.513-13.911,33.855-13.657
				c0,0,33.538-2.033,52.595,7.623c0,0,12.195,6.098,8.384,27.949c-3.812,21.851,3.557,56.151,35.063,54.627
				c31.506-1.524,19.564-31.76,4.064-41.669c0,0,12.705-10.925,29.982,1.524c0,0,1.777-16.007-27.695-34.3
				c0,0,23.259,4.489,43.193,21.851c7.876,6.86,9.655,8.385,15.499,4.065c5.843-4.319-4.016-53.61-84.304-92.23h261.648
				l45.227,98.074c0,0-29.98-25.547-66.06-25.547s-47.766,25.039-47.259,43.332c0.508,18.293,11.688,50.307,50.308,50.307
				s20.833,0,20.833,0V800.4c0,0-15.75-64.028-63.518-95.025c-47.768-30.997-65.045,6.098-65.045,19.818
				c0,13.721,8.131,53.355,41.161,71.649l-60.979,53.358c0,0-8.13-34.556-28.965-61.996c-20.835-27.439-40.146-20.326-46.751-13.72
				s-14.229,36.585,21.343,70.633l-9.655,12.196c0,0,3.049,12.704,28.966,20.326c25.915,7.623,66.568,9.147,66.568,44.718
				c0,24.378-7.622,32.012-16.77,38.619c0,0,6.099-50.396-26.487-50.396c-28.902,0-32.459,32.612-21.787,39.218
				c0,0-30.488,12.197-26.424-37.095l-12.195,8.638l-25.408-27.948l116.876,264.749c0,0-64.028-44.717-156.513-14.228
				l-43.314-98.075l-50.186,98.582c0,0-79.78-35.571-156.003,17.277l118.4-264.749l-26.424,23.884l-10.671-8.13
				c0,0,7.113,44.208-28.457,40.651c0,0,14.737-19.311-2.541-38.112c-17.277-18.801-49.8,5.589-43.193,45.734
				c0,0-20.326-9.653-20.326-36.078s13.72-49.798,75.715-45.733l21.851-20.835l-11.18-10.162c0,0,46.242-56.914,22.867-77.748
				s-55.389,19.31-75.207,79.78l-60.979-52.34c0,0,46.242-35.063,41.161-73.683s-48.274-41.668-81.305-8.13
				c-33.03,33.538-44.21,52.34-46.75,81.812V653.546h18.802c0,0,45.822,2.345,51.832-45.733
				c4.573-36.586-32.521-47.258-45.226-47.258c0,0-27.639-3.813-67.585,25.916L417.273,490.427z"/>
			<polygon fill="#D1FFFF" points="1040.778,835.465 1217.165,1176.1 1012.321,1176.1 973.702,1098.688 1095.433,1098.688 
				978.783,877.134 			"/>
			<polygon fill="#D1FFFF" points="524.494,1099.196 484.858,1176.1 283.835,1176.1 456.4,835.465 517.379,877.134 
				403.656,1099.197 			"/>
		</g>
	</g>
</g>
</svg>
