<?xml version="1.0" encoding="utf-8"?>
<!-- Generator: Adobe Illustrator 16.0.0, SVG Export Plug-In . SVG Version: 6.00 Build 0)  -->
<!DOCTYPE svg PUBLIC "-//W3C//DTD SVG 1.1//EN" "http://www.w3.org/Graphics/SVG/1.1/DTD/svg11.dtd">
<svg version="1.1" xmlns="http://www.w3.org/2000/svg" xmlns:xlink="http://www.w3.org/1999/xlink" x="0px" y="0px" width="320px"
	 height="490.036px" viewBox="0 0 320 490.036" enable-background="new 0 0 320 490.036" xml:space="preserve">
<g id="Ref">
</g>
<g id="Wireframes">
</g>
<g id="FrameDrawings">
</g>
<g id="Color_Palette">
</g>
<g id="RankIcons">
</g>
<g id="E2-BG">
	<linearGradient id="SVGID_1_" gradientUnits="userSpaceOnUse" x1="160" y1="-592.9824" x2="160" y2="566.7311">
		<stop  offset="0" style="stop-color:#0082FF"/>
		<stop  offset="0.2393" style="stop-color:#013B7B"/>
		<stop  offset="1" style="stop-color:#01122E"/>
	</linearGradient>
	<rect fill="url(#SVGID_1_)" width="320" height="490.036"/>
	<g>
		<g>
			<path fill="#58A1F9" d="M159.822,326.141l-11.501-5.955c-0.607-0.314-15.015-7.843-27.665-20.552
				c-1.098-1.104-2.156-2.22-3.148-3.318l-0.66-0.732l0.037-0.03c-2.209-2.971-2.68-6.963-1.21-10.396
				c-2.227-1.985-3.489-4.784-3.489-7.788v-87.721c0-0.058,0.002-0.163,0.006-0.303c0.094-3.783-0.659-7.781-2.24-11.885
				c-4.391-11.409-26.158-18.983-33.438-20.737l-3.661-0.882l59.421-14.934l27.549,10.972V326.141z M119.321,295.553
				c0.844,0.921,1.733,1.852,2.649,2.772c12.447,12.507,26.605,19.904,27.203,20.214l8.795,4.554V153.137l-25.824-10.286
				l-51.793,13.017c3.742,1.147,9.082,3.075,14.352,5.729c9.159,4.61,14.871,9.724,16.979,15.198
				c1.668,4.331,2.463,8.569,2.363,12.598c-0.004,0.108-0.006,0.19-0.005,0.244v87.732c0,2.676,1.219,5.155,3.346,6.802l0.61,0.472
				l-0.354,0.685c-1.646,3.189-1.146,7.104,1.242,9.744L119.321,295.553z M140.776,292.21l-1.529-1.31
				c-1.893-1.62-3.675-3.273-5.3-4.915c-0.721-0.729-1.427-1.473-2.096-2.21l-0.517-0.553c-0.259-0.26-0.535-0.503-0.822-0.725
				l-0.612-0.476l0.359-0.688c0.645-1.232,0.972-2.567,0.972-3.966v-87.394c-0.001-0.086,0.001-0.207,0.004-0.355l0.001-0.091
				c0.042-2.727,0.168-11.026-3.232-19.229l-0.402-0.973c-0.854-2.065-1.657-4.011-2.555-5.821l-0.512-1.032l6.398-1.6l9.843,3.92
				V292.21z M132.227,281.515c0.143,0.129,0.283,0.26,0.418,0.396l0.14,0.14l0.436,0.477c0.655,0.72,1.343,1.443,2.046,2.154
				c1.144,1.156,2.368,2.32,3.656,3.474V166.052l-8.118-3.233l-3.598,0.899c0.728,1.559,1.401,3.188,2.106,4.896l0.404,0.978
				c3.548,8.556,3.417,17.145,3.373,19.967l-0.002,0.093c-0.002,0.13-0.004,0.237-0.002,0.317v87.4
				C133.086,278.793,132.791,280.212,132.227,281.515z"/>
		</g>
		<g>
			<path fill="#58A1F9" d="M160.198,326.141V151.88l27.549-10.972l59.422,14.934l-3.661,0.882
				c-7.279,1.754-29.047,9.328-33.439,20.737c-1.58,4.104-2.333,8.104-2.237,11.887c0.003,0.138,0.005,0.243,0.005,0.312v87.71
				c0,3.004-1.264,5.803-3.488,7.788c1.48,3.461,0.99,7.488-1.265,10.467l0.027,0.026l-0.598,0.665
				c-0.992,1.099-2.051,2.215-3.147,3.318c-12.65,12.709-27.058,20.237-27.665,20.552L160.198,326.141z M162.054,153.137v169.956
				l8.795-4.553c0.597-0.311,14.755-7.708,27.202-20.215c0.955-0.96,1.882-1.931,2.757-2.89l0.328-0.364
				c2.39-2.64,2.889-6.555,1.244-9.744l-0.354-0.685l0.61-0.472c2.126-1.646,3.346-4.126,3.346-6.802v-87.721
				c0.001-0.064-0.001-0.147-0.003-0.256c-0.104-4.027,0.692-8.266,2.36-12.598c2.106-5.475,7.819-10.588,16.979-15.198
				c5.27-2.652,10.609-4.581,14.352-5.729l-51.793-13.017L162.054,153.137z M179.245,292.21V164.795l9.842-3.92l6.399,1.6
				l-0.512,1.032c-0.898,1.809-1.701,3.754-2.552,5.812l-0.405,0.981c-3.4,8.2-3.274,16.5-3.232,19.228l0.001,0.099
				c0.002,0.145,0.005,0.263,0.005,0.353l-0.001,87.39c0,1.398,0.326,2.733,0.972,3.966l0.358,0.688l-0.612,0.476
				c-0.286,0.221-0.562,0.465-0.821,0.724l-0.095,0.095l-0.422,0.462c-0.67,0.734-1.375,1.479-2.097,2.207
				c-1.622,1.641-3.405,3.294-5.299,4.915L179.245,292.21z M181.099,166.052v122.102c1.288-1.153,2.513-2.316,3.657-3.472
				c0.702-0.71,1.39-1.436,2.044-2.153l0.577-0.618c0.135-0.136,0.274-0.268,0.417-0.396c-0.563-1.303-0.857-2.722-0.857-4.146
				v-87.394c0.001-0.085-0.002-0.189-0.004-0.317l-0.002-0.099c-0.042-2.825-0.173-11.414,3.373-19.969l0.403-0.971
				c0.707-1.714,1.381-3.345,2.108-4.902l-3.597-0.899L181.099,166.052z"/>
		</g>
	</g>
	<path opacity="0.3" fill="none" stroke="#58A1F9" stroke-linecap="round" stroke-miterlimit="10" d="M122.636,279.939v-87.193
		c0,0,2.675-23.316-15.905-35.339l24.409-5.829l18.216,7.651v149.368c0,0-13.214-7.981-25.916-21.113"/>
	<path opacity="0.3" fill="none" stroke="#58A1F9" stroke-linecap="round" stroke-miterlimit="10" d="M197.205,279.939v-87.193
		c0,0-2.676-23.316,15.904-35.339l-24.408-5.829l-18.216,7.651v149.368c0,0,13.214-7.981,25.915-21.113"/>
</g>
<g id="E1-ProgressBars">
</g>
<g id="Text">
</g>
<g id="Ext_BG">
	<line display="none" opacity="0.5" fill="#2BA0FF" x1="-1844.065" y1="-272.288" x2="-1524.065" y2="-272.288"/>
</g>
<g id="iCONS">
</g>
<g id="Layer_11">
</g>
</svg>
