<?xml version="1.0" encoding="utf-8"?>
<!-- Generator: Adobe Illustrator 16.0.0, SVG Export Plug-In . SVG Version: 6.00 Build 0)  -->
<!DOCTYPE svg PUBLIC "-//W3C//DTD SVG 1.1//EN" "http://www.w3.org/Graphics/SVG/1.1/DTD/svg11.dtd">
<svg version="1.1" xmlns="http://www.w3.org/2000/svg" xmlns:xlink="http://www.w3.org/1999/xlink" x="0px" y="0px" width="320px"
	 height="490.036px" viewBox="0 0 320 490.036" enable-background="new 0 0 320 490.036" xml:space="preserve">
<g id="Ref">
</g>
<g id="Wireframes">
</g>
<g id="FrameDrawings">
</g>
<g id="Color_Palette">
</g>
<g id="RankIcons">
</g>
<g id="E2-BG">
	<linearGradient id="SVGID_1_" gradientUnits="userSpaceOnUse" x1="160" y1="-592.9824" x2="160" y2="566.7311">
		<stop  offset="0" style="stop-color:#0082FF"/>
		<stop  offset="0.2393" style="stop-color:#013B7B"/>
		<stop  offset="1" style="stop-color:#01122E"/>
	</linearGradient>
	<rect fill="url(#SVGID_1_)" width="320" height="490.036"/>
	<g>
		<g>
			<path fill="#F4921E" d="M196.528,291.01c1.004-1.003,1.005-2.631,0.001-3.634c-1.003-1.003-2.631-1.003-3.635,0l-0.331,0.361
				c-0.739,0.812-1.492,1.604-2.254,2.375c-5.876,5.942-12.311,10.68-17.129,13.86V270.07V160.671l15.436-6.147l17.277,4.319
				c-4.426,3.814-5.831,7.614-8.362,13.721c-3.227,7.779-2.754,15.912-2.767,17.418v80.089v7.194c0,1.419,1.149,2.569,2.569,2.569
				c1.418,0,2.569-1.15,2.569-2.569v-7.194v-80.337c-0.009-0.069-0.171-27.554,20.555-32.547l-32.204-8.051l-20.212,8.051V270.07
				v42.995c0,0,13.771-7.131,25.688-19.104c0.977-0.979,1.939-1.991,2.882-3.036L196.528,291.01z"/>
		</g>
		<g>
			<path fill="#F4921E" d="M123.429,291.01c-1.003-1.003-1.003-2.631,0-3.634c1.004-1.003,2.631-1.003,3.635,0l0.332,0.361
				c0.738,0.812,1.492,1.604,2.254,2.375c5.876,5.942,12.31,10.68,17.128,13.86V270.07V160.671l-15.436-6.147l-17.276,4.319
				c4.426,3.814,5.83,7.614,8.362,13.721c3.226,7.779,2.753,15.912,2.766,17.418v80.089v7.194c0,1.419-1.149,2.569-2.568,2.569
				s-2.569-1.15-2.569-2.569v-7.194v-80.337c0.007-0.069,0.17-27.554-20.555-32.547l32.203-8.051l20.213,8.051V270.07v42.995
				c0,0-13.771-7.131-25.688-19.104c-0.976-0.979-1.939-1.991-2.882-3.036L123.429,291.01z"/>
		</g>
	</g>
	<g>
		<path fill="#58A1F9" d="M159.791,326.011l-11.495-5.952c-0.607-0.314-15.006-7.839-27.648-20.54
			c-1.097-1.103-2.156-2.219-3.146-3.317l-0.661-0.731l0.037-0.029c-2.208-2.971-2.679-6.959-1.21-10.391
			c-2.225-1.984-3.486-4.781-3.486-7.785v-87.67c0-0.059,0.002-0.163,0.005-0.303c0.095-3.781-0.658-7.778-2.236-11.879
			c-4.39-11.402-26.146-18.973-33.421-20.726l-3.659-0.881l59.389-14.926l27.533,10.967V326.011z M119.311,295.438
			c0.845,0.921,1.733,1.852,2.649,2.772c12.44,12.498,26.592,19.894,27.188,20.202l8.791,4.551V153.103l-25.811-10.28
			l-51.764,13.009c3.74,1.147,9.077,3.075,14.344,5.726c9.154,4.607,14.864,9.718,16.971,15.188
			c1.666,4.329,2.46,8.565,2.359,12.591c-0.003,0.109-0.005,0.19-0.004,0.245v87.682c0,2.677,1.219,5.153,3.344,6.799l0.609,0.473
			l-0.354,0.685c-1.645,3.187-1.145,7.1,1.242,9.737L119.311,295.438z M140.756,292.099l-1.529-1.309
			c-1.892-1.618-3.674-3.272-5.296-4.913c-0.721-0.729-1.426-1.472-2.096-2.207l-0.515-0.554c-0.259-0.259-0.535-0.503-0.822-0.725
			l-0.611-0.475l0.358-0.687c0.644-1.233,0.971-2.567,0.971-3.966v-87.344c0-0.086,0.001-0.207,0.004-0.354l0.002-0.092
			c0.041-2.725,0.168-11.021-3.231-19.218l-0.401-0.972c-0.854-2.066-1.656-4.01-2.553-5.818l-0.513-1.031l6.396-1.599l9.837,3.918
			V292.099z M132.211,281.409c0.144,0.128,0.282,0.261,0.419,0.395l0.138,0.14l0.437,0.477c0.653,0.72,1.341,1.443,2.044,2.153
			c1.143,1.156,2.367,2.319,3.654,3.472V166.012l-8.114-3.233l-3.596,0.9c0.729,1.556,1.399,3.184,2.104,4.891l0.405,0.979
			c3.545,8.552,3.414,17.136,3.371,19.956v0.093c-0.004,0.131-0.006,0.237-0.004,0.318v87.35
			C133.069,278.688,132.773,280.107,132.211,281.409z"/>
	</g>
	<g>
		<path fill="#58A1F9" d="M160.168,326.011V151.847L187.7,140.88l59.389,14.925l-3.659,0.882c-7.275,1.753-29.03,9.323-33.42,20.726
			c-1.58,4.103-2.332,8.099-2.236,11.88c0.003,0.139,0.005,0.243,0.005,0.312v87.659c0,3.004-1.263,5.801-3.487,7.785
			c1.481,3.462,0.989,7.494-1.271,10.472l0.026,0.025l-0.588,0.654c-0.992,1.099-2.05,2.215-3.146,3.317
			c-12.643,12.701-27.043,20.226-27.648,20.54L160.168,326.011z M162.021,153.103v169.861l8.791-4.551
			c0.595-0.309,14.746-7.703,27.187-20.202c0.955-0.961,1.882-1.932,2.759-2.893l0.325-0.36c2.387-2.638,2.887-6.551,1.242-9.737
			l-0.353-0.685l0.608-0.473c2.126-1.646,3.345-4.122,3.345-6.799v-87.67c0-0.066-0.002-0.147-0.005-0.255
			c-0.101-4.026,0.693-8.263,2.36-12.593c2.106-5.471,7.815-10.581,16.97-15.188c5.267-2.651,10.604-4.579,14.345-5.726
			l-51.765-13.009L162.021,153.103z M179.202,292.099V164.755l9.838-3.918l6.396,1.599l-0.513,1.031
			c-0.896,1.809-1.699,3.753-2.55,5.811l-0.405,0.979c-3.398,8.195-3.271,16.491-3.23,19.218l0.002,0.098
			c0.002,0.145,0.004,0.263,0.004,0.352l-0.001,87.341c0,1.398,0.326,2.732,0.972,3.966l0.357,0.687l-0.611,0.475
			c-0.286,0.222-0.562,0.466-0.821,0.723l-0.095,0.097l-0.422,0.461c-0.669,0.735-1.375,1.478-2.096,2.205
			c-1.621,1.641-3.402,3.294-5.295,4.913L179.202,292.099z M181.056,166.012v122.032c1.288-1.152,2.512-2.314,3.654-3.47
			c0.703-0.71,1.391-1.434,2.044-2.151l0.575-0.619c0.137-0.135,0.275-0.267,0.418-0.395c-0.563-1.302-0.857-2.721-0.857-4.145
			v-87.344c0-0.084-0.002-0.189-0.004-0.317l-0.001-0.099c-0.044-2.823-0.174-11.408,3.371-19.957l0.401-0.971
			c0.707-1.712,1.381-3.343,2.108-4.898l-3.596-0.9L181.056,166.012z"/>
	</g>
</g>
<g id="E1-ProgressBars">
</g>
<g id="Text">
</g>
<g id="Ext_BG">
	<line display="none" opacity="0.5" fill="#2BA0FF" x1="-1844.065" y1="-272.288" x2="-1524.065" y2="-272.288"/>
</g>
<g id="iCONS">
</g>
<g id="Layer_11">
</g>
</svg>
